<?xml version="1.0" encoding="utf-8"?>
<!-- Generator: Adobe Illustrator 16.0.0, SVG Export Plug-In . SVG Version: 6.00 Build 0)  -->
<!DOCTYPE svg PUBLIC "-//W3C//DTD SVG 1.1//EN" "http://www.w3.org/Graphics/SVG/1.1/DTD/svg11.dtd">
<svg version="1.1" id="radio" xmlns="http://www.w3.org/2000/svg" xmlns:xlink="http://www.w3.org/1999/xlink" x="0px" y="0px"
	 width="90px" height="90px" viewBox="0 0 90 90" enable-background="new 0 0 90 90" xml:space="preserve">
<g>
	<path fill="none" stroke="#032E40" stroke-width="2" stroke-miterlimit="10" d="M85.375,69.5c0,2.75-2.25,5-5,5H9.625
		c-2.75,0-5-2.25-5-5V33.625c0-2.75,2.25-5,5-5h70.75c2.75,0,5,2.25,5,5V69.5z"/>
</g>
<path fill="none" stroke="#032E40" stroke-width="2" stroke-miterlimit="10" d="M23,28.62v-7.5c0,0,0-4.5,5.12-5.87h33.47
	c0,0,4.66,1.13,5.44,6v7.37"/>
<path fill="none" stroke="#032E40" stroke-width="2" stroke-miterlimit="10" d="M26.5,28.62v-6.56c0.38-2.31,3.38-2.68,3.38-2.68
	l31,0.12c2.49,0.12,2.49,3.81,2.49,3.81v5.31"/>
<line fill="none" stroke="#8181EA" stroke-width="2" stroke-miterlimit="10" x1="39.625" y1="45.667" x2="39.625" y2="48.813"/>
<line fill="none" stroke="#8181EA" stroke-width="2" stroke-miterlimit="10" x1="43.188" y1="43.844" x2="43.188" y2="46.99"/>
<line fill="none" stroke="#8181EA" stroke-width="2" stroke-miterlimit="10" x1="46.813" y1="45.667" x2="46.813" y2="48.813"/>
<line fill="none" stroke="#8181EA" stroke-width="2" stroke-miterlimit="10" x1="50.188" y1="44.094" x2="50.188" y2="47.24"/>
<line fill="none" stroke="#8181EA" stroke-width="2" stroke-miterlimit="10" x1="19.5" y1="50" x2="21.5" y2="50"/>
<path fill="none" stroke="#8181EA" stroke-width="2" stroke-miterlimit="10" d="M61.777,56.875c0,0-1.402-4.208,3.375-6.125"/>
<path fill="none" stroke="#8181EA" stroke-width="2" stroke-miterlimit="10" d="M14.063,56.375c0,0-1.402-4.208,3.375-6.125"/>
<line fill="none" stroke="#8181EA" stroke-width="2" stroke-miterlimit="10" x1="67.027" y1="50.25" x2="69.027" y2="50.25"/>
<circle fill="none" stroke="#032E40" stroke-width="2" stroke-miterlimit="10" cx="15" cy="39.167" r="4.5"/>
<circle fill="none" stroke="#032E40" stroke-width="2" stroke-miterlimit="10" cx="74.826" cy="39.167" r="4.5"/>
<rect x="37.583" y="52.667" fill="none" stroke="#032E40" stroke-width="2" stroke-miterlimit="10" width="14.667" height="9.916"/>
<circle fill="none" stroke="#032E40" stroke-width="2" stroke-miterlimit="10" cx="21" cy="56.625" r="10.958"/>
<circle fill="none" stroke="#032E40" stroke-width="2" stroke-miterlimit="10" cx="68.369" cy="56.625" r="10.958"/>
<rect x="31.688" y="32.75" fill="none" stroke="#032E40" stroke-width="2" stroke-miterlimit="10" width="26" height="3.75"/>
<line fill="none" stroke="#032E40" stroke-width="2" stroke-miterlimit="10" x1="70.33" y1="39.17" x2="19.5" y2="39.17"/>
<line fill="none" stroke="#032E40" stroke-width="2" stroke-miterlimit="10" x1="84.88" y1="39.17" x2="79.33" y2="39.17"/>
<line fill="none" stroke="#032E40" stroke-width="2" stroke-miterlimit="10" x1="10.5" y1="39.17" x2="5.12" y2="39.17"/>
<line fill="none" stroke="#032E40" stroke-width="2" stroke-miterlimit="10" x1="39.625" y1="64.875" x2="39.625" y2="66.625"/>
<line fill="none" stroke="#032E40" stroke-width="2" stroke-miterlimit="10" x1="43.188" y1="64.875" x2="43.188" y2="66.625"/>
<line fill="none" stroke="#032E40" stroke-width="2" stroke-miterlimit="10" x1="46.5" y1="64.875" x2="46.5" y2="66.625"/>
<line fill="none" stroke="#032E40" stroke-width="2" stroke-miterlimit="10" x1="50.188" y1="64.875" x2="50.188" y2="66.625"/>
<rect x="31.958" y="25.875" fill="none" stroke="#032E40" stroke-width="2" stroke-miterlimit="10" width="25.452" height="2.75"/>
<line fill="none" stroke="#032E40" stroke-width="2" stroke-miterlimit="10" x1="45.016" y1="26.125" x2="45.016" y2="28.625"/>
<line fill="none" stroke="#032E40" stroke-width="2" stroke-miterlimit="10" x1="51.25" y1="26.125" x2="51.25" y2="28.625"/>
<line fill="none" stroke="#032E40" stroke-width="2" stroke-miterlimit="10" x1="38.875" y1="26" x2="38.875" y2="28.62"/>
</svg>
