<?xml version="1.0" encoding="utf-8"?>
<!-- Generator: Adobe Illustrator 16.0.0, SVG Export Plug-In . SVG Version: 6.00 Build 0)  -->
<!DOCTYPE svg PUBLIC "-//W3C//DTD SVG 1.1//EN" "http://www.w3.org/Graphics/SVG/1.1/DTD/svg11.dtd">
<svg version="1.1" id="bottle" xmlns="http://www.w3.org/2000/svg" xmlns:xlink="http://www.w3.org/1999/xlink" x="0px" y="0px"
	 width="90px" height="90px" viewBox="0 0 90 90" enable-background="new 0 0 90 90" xml:space="preserve">
<circle fill="none" stroke="#29264E" stroke-width="2" stroke-miterlimit="10" cx="30.417" cy="64.334" r="13.583"/>
<path fill="none" stroke="#042F40" stroke-width="2" stroke-miterlimit="10" d="M15.75,45.14V32.5c0,0,0.78-4.25,6.33-4.79"/>
<path fill="none" stroke="#042F40" stroke-width="2" stroke-miterlimit="10" d="M10.6,50.51c0.04-4.25,0.11-13.47-0.02-20.18
	c2.02-7.33,9.49-8.46,11.5-8.63"/>
<path fill="none" stroke="#042F40" stroke-width="2" stroke-miterlimit="10" d="M45.25,45.27V33.33c-0.5-5-6.5-5.5-6.5-5.5v-6.16
	c5.55,0.84,8.35,3.16,9.75,5.26v0.01c1.38,2.06,1.42,3.89,1.42,3.89v10.01v9.24"/>
<rect x="22.083" y="19.833" fill="none" stroke="#042F40" stroke-width="2" stroke-miterlimit="10" width="16.667" height="9.667"/>
<path fill="none" stroke="#042F40" stroke-width="2" stroke-miterlimit="10" d="M54.58,64.33c0,8.43-4.311,15.85-10.85,20.17H17.11
	C10.57,80.18,6.25,72.76,6.25,64.33c0-13.34,10.82-24.16,24.17-24.16C43.76,40.17,54.58,50.99,54.58,64.33z"/>
<path fill="none" stroke="#042F40" stroke-width="2" stroke-miterlimit="10" d="M49.92,40.84c0,0.83,2.98,1.97,6,1.66
	c0,0,2.5,2.79,0,5.04c0,0-4.84-0.92-5.84,2.76"/>
<path fill="none" stroke="#042F40" stroke-width="2" stroke-miterlimit="10" d="M50.08,78.39c0.837,4.11,6.42,6.11,8.17,6.11
	c3,0,16.83,0,16.83,0s7.67-2.333,8.5-8.67c0.34-6.16,0-22.5,0-22.5s0.34-6-7.5-5.5c-1.83-1-1.66-4.66-0.16-5
	c0,0,6.997,0.503,7.811-4.83c0.189-5.5,0-10.83,0-10.83s-0.813-9.188-9.48-9.17c-0.06,0-0.11,0-0.17,0
	c-5.58,0.14-12.93,0.05-15.16,0.01C58.49,18,58.25,18,58.25,18s-8.33-0.833-9.75,8.93v0.01"/>
<polyline fill="none" stroke="#042F40" stroke-width="2" stroke-miterlimit="10" points="74.08,18 74.08,12.5 68.75,12.5 
	63.58,12.5 58.92,12.5 58.92,18.01 "/>
<polyline fill="none" stroke="#042F40" stroke-width="2" stroke-miterlimit="10" points="63.58,12.5 63.58,9.33 68.75,9.33 
	68.75,12.5 "/>
<rect x="61.917" y="5.5" fill="none" stroke="#042F40" stroke-width="2" stroke-miterlimit="10" width="8.833" height="3.333"/>
<path fill="none" stroke="#A19DF7" stroke-width="2" stroke-miterlimit="10" d="M10.58,63.667c0,0-2.664-12.387,12.17-18.527"/>
<line fill="none" stroke="#A19DF7" stroke-width="2" stroke-miterlimit="10" x1="25.75" y1="43.333" x2="29.583" y2="43.333"/>
<path fill="none" stroke="#A19DF7" stroke-width="2" stroke-miterlimit="10" d="M51.75,28.667c0,0,2.334-5.167,4.167-6"/>
<line fill="none" stroke="#A19DF7" stroke-width="2" stroke-miterlimit="10" x1="57.417" y1="21.7" x2="58.92" y2="21.7"/>
<line fill="none" stroke="#A19DF7" stroke-width="2" stroke-miterlimit="10" x1="69.75" y1="57.5" x2="78.917" y2="57.5"/>
<line fill="none" stroke="#A19DF7" stroke-width="2" stroke-miterlimit="10" x1="72.75" y1="63.667" x2="78.917" y2="63.667"/>
<line fill="none" stroke="#A19DF7" stroke-width="2" stroke-miterlimit="10" x1="69.75" y1="68.5" x2="79.583" y2="68.5"/>
</svg>
