<?xml version="1.0" encoding="utf-8"?>
<!-- Generator: Adobe Illustrator 16.0.0, SVG Export Plug-In . SVG Version: 6.00 Build 0)  -->
<!DOCTYPE svg PUBLIC "-//W3C//DTD SVG 1.1//EN" "http://www.w3.org/Graphics/SVG/1.1/DTD/svg11.dtd">
<svg version="1.1" id="pilates" xmlns="http://www.w3.org/2000/svg" xmlns:xlink="http://www.w3.org/1999/xlink" x="0px" y="0px"
	 width="90px" height="90px" viewBox="0 0 90 90" enable-background="new 0 0 90 90" xml:space="preserve">
<g>
	<path fill="none" stroke="#2D292A" stroke-width="2" stroke-miterlimit="10" d="M79.436,21.749c0,2.2-1.8,4-4,4H51.749
		c-2.2,0-4-1.8-4-4V11.083c0-2.2,1.8-4,4-4h23.687c2.2,0,4,1.8,4,4V21.749z"/>
</g>
<g>
	<path fill="none" stroke="#2D292A" stroke-width="2" stroke-miterlimit="10" d="M79.436,77.583c0,2.2-1.8,4-4,4H51.749
		c-2.2,0-4-1.8-4-4V66.917c0-2.2,1.8-4,4-4h23.687c2.2,0,4,1.8,4,4V77.583z"/>
</g>
<path fill="none" stroke="#2D292A" stroke-width="2" stroke-miterlimit="10" d="M68.146,25.749c0.06,0.43,0.119,0.89,0.17,1.37
	c1.109,10.06,0.26,29.12-0.101,35.8"/>
<path fill="none" stroke="#2D292A" stroke-width="2" stroke-miterlimit="10" d="M59.286,62.919c-1.44-8.82-1.03-24.18-0.61-33.29
	c0.07-1.47,0.141-2.79,0.2-3.88"/>
<path fill="none" stroke="#2D292A" stroke-width="2" stroke-miterlimit="10" d="M22.356,42.529c3.77-5.13,13.8-14.43,36.32-12.9"/>
<path fill="none" stroke="#2D292A" stroke-width="2" stroke-miterlimit="10" d="M50.606,81.579c-2.37,0.55-4.83,0.84-7.36,0.84
	c-18.22,0-33-15-33-33.5s14.78-33.5,33-33.5c1.53,0,3.03,0.11,4.5,0.31"/>
<path fill="none" stroke="#2D292A" stroke-width="2" stroke-miterlimit="10" d="M73.236,62.919c1.93-4.26,3.01-9,3.01-14
	c0-8.32-2.99-15.94-7.93-21.8c-0.4-0.47-0.811-0.92-1.23-1.37"/>
<ellipse transform="matrix(0.9953 -0.0968 0.0968 0.9953 -5.0304 2.0676)" fill="none" stroke="#2D292A" stroke-width="2" stroke-miterlimit="10" cx="18.787" cy="52.86" rx="7.796" ry="12.25"/>
<path fill="none" stroke="#2D292A" stroke-width="2" stroke-miterlimit="10" d="M24.316,62.279c3.93,3.029,12,7.92,23.43,8.39"/>
<path fill="none" stroke="#8279F2" stroke-width="2" stroke-miterlimit="10" d="M21.25,30.749c0,0,5.388-8,13.833-9.333"/>
<line fill="none" stroke="#8279F2" stroke-width="2" stroke-miterlimit="10" x1="38.583" y1="20.416" x2="43.416" y2="20.416"/>
<line fill="none" stroke="#8279F2" stroke-width="2" stroke-miterlimit="10" x1="50.606" y1="18.916" x2="50.606" y2="20.416"/>
<line fill="none" stroke="#8279F2" stroke-width="2" stroke-miterlimit="10" x1="61.916" y1="31.416" x2="61.916" y2="34.416"/>
<line fill="none" stroke="#8279F2" stroke-width="2" stroke-miterlimit="10" x1="61.916" y1="38.416" x2="61.916" y2="51.416"/>
<line fill="none" stroke="#8279F2" stroke-width="2" stroke-miterlimit="10" x1="50.606" y1="68.749" x2="50.606" y2="72.749"/>
<line fill="none" stroke="#8279F2" stroke-width="2" stroke-miterlimit="10" x1="50.606" y1="74.916" x2="50.606" y2="76.749"/>
<line fill="none" stroke="#8279F2" stroke-width="2" stroke-miterlimit="10" x1="51.749" y1="67.249" x2="56.583" y2="67.249"/>
<line fill="none" stroke="#8279F2" stroke-width="2" stroke-miterlimit="10" x1="50.606" y1="12.083" x2="50.606" y2="16.416"/>
<line fill="none" stroke="#8279F2" stroke-width="2" stroke-miterlimit="10" x1="51.749" y1="10.916" x2="56.583" y2="10.916"/>
</svg>
