<?xml version="1.0" encoding="utf-8"?>
<!-- Generator: Adobe Illustrator 16.0.0, SVG Export Plug-In . SVG Version: 6.00 Build 0)  -->
<!DOCTYPE svg PUBLIC "-//W3C//DTD SVG 1.1//EN" "http://www.w3.org/Graphics/SVG/1.1/DTD/svg11.dtd">
<svg version="1.1" id="lotus" xmlns="http://www.w3.org/2000/svg" xmlns:xlink="http://www.w3.org/1999/xlink" x="0px" y="0px"
	 width="90px" height="90px" viewBox="0 0 90 90" enable-background="new 0 0 90 90" xml:space="preserve">
<path fill="none" stroke="#252122" stroke-width="2" stroke-miterlimit="10" d="M75.054,54.62c-4.5,7.19-13.551,12.101-30.41,12.37
	h-0.07c0,0-0.13-0.64-0.26-1.76c-0.24-2.061-0.49-5.72,0.07-9.92c1.02-7.63,4.72-17,15.98-21.57c2.81-1.14,6.09-1.99,9.91-2.43
	c2.52-0.29,5.28-0.41,8.3-0.32C79.523,39.58,79.193,48.051,75.054,54.62z"/>
<path fill="none" stroke="#252122" stroke-width="2" stroke-miterlimit="10" d="M44.313,65.23c-0.14,1.12-0.27,1.76-0.27,1.76
	c-15.43-0.07-23.84-5.91-28.37-12.88c-6.74-10.34-4.93-23.15-4.93-23.15c3.52-0.15,6.68-0.02,9.51,0.36
	c3.88,0.51,7.16,1.48,9.92,2.77c10.09,4.71,13.36,13.79,14.21,21.22C44.863,59.511,44.583,63.17,44.313,65.23z"/>
<path fill="none" stroke="#252122" stroke-width="2" stroke-miterlimit="10" d="M20.253,31.32c0.13-2.53,0.51-5.46,1.49-7.17
	c3.95-0.11,7.58,2.94,10.09,4.73"/>
<path fill="none" stroke="#252122" stroke-width="2" stroke-miterlimit="10" d="M70.273,31.311c-0.29-2.81-0.8-6.8-2.2-8.32
	c-3.94-0.1-8.11,2.3-10.92,4.35v0.01"/>
<path fill="none" stroke="#252122" stroke-width="2" stroke-miterlimit="10" d="M60.363,33.74c-0.84-1.77-1.93-4.02-3.21-6.39v-0.01
	c-3.256-5.46-8.736-11.88-12.58-14.35c-7.11,5.51-10.81,11.32-12.74,15.89c-0.85,2.03-1.36,3.81-1.66,5.21"/>
<path fill="none" stroke="#252122" stroke-width="2" stroke-miterlimit="10" d="M15.673,54.11l-9.77,6.04
	c10.84,9.57,22.07,10.28,29.51,9.22c5.26-0.75,8.63-2.38,8.63-2.38"/>
<path fill="none" stroke="#252122" stroke-width="2" stroke-miterlimit="10" d="M75.054,54.62c4.409,2.17,8.85,5.91,8.85,5.91
	c-11.35,9.09-22.08,10.14-29.44,9.24c-6.05-0.73-9.819-2.78-9.819-2.78"/>
<path fill="none" stroke="#252122" stroke-width="2" stroke-miterlimit="10" d="M35.413,69.37c3.04,2.851,7.93,7.28,9.16,7.62
	c1.3,0.36,6.81-4.42,9.89-7.22"/>
<path fill="none" stroke="#948DF5" stroke-width="2" stroke-miterlimit="10" d="M21.907,57.153c0,0-5.5-5-6.5-12.667"/>
<path fill="none" stroke="#948DF5" stroke-width="2" stroke-miterlimit="10" d="M35.413,28.487c0,0,1.827-4.167,5.16-7.167"/>
<path fill="none" stroke="#948DF5" stroke-width="2" stroke-miterlimit="10" d="M42.073,19.654c0,0,0.942-1,1.971-2"/>
<path fill="none" stroke="#948DF5" stroke-width="2" stroke-miterlimit="10" d="M75.573,37.82c0,0,0.333,3.667,0,3.833"/>
<path fill="none" stroke="#948DF5" stroke-width="2" stroke-miterlimit="10" d="M74.573,44.487c0,0-1.501,8.667-6.667,12.667"/>
<line fill="none" stroke="#948DF5" stroke-width="2" stroke-miterlimit="10" x1="14.573" y1="41.654" x2="13.907" y2="37.82"/>
</svg>
